<svg width="928" height="928" viewBox="0 0 928 928" fill="none" xmlns="http://www.w3.org/2000/svg">
<path d="M249.032 403V393.156H251.548L256.292 401.954L255.807 401.995V393.156H257.502V403H255.082L250.222 394.154L250.728 394.106V403H249.032ZM259.129 403V401.558H260.469V394.599H259.129V393.156H263.579V394.599H262.239V401.558H263.579V403H259.129Z" fill="black" fill-opacity="0.3"/>
<path d="M128.032 255V245.156H129.803V249.395L134.137 245.156H136.379L132.688 248.766L136.57 255H134.499L131.43 250.003L129.803 251.596V255H128.032ZM137.835 255V245.156H144.603V246.64H139.605V249.08H143.898V250.522H139.605V253.517H144.698V255H137.835Z" fill="black" fill-opacity="0.3"/>
<path d="M216.587 162.171C215.844 162.171 215.174 162.055 214.577 161.822C213.98 161.585 213.488 161.232 213.101 160.763C212.718 160.293 212.469 159.712 212.355 159.02L214.276 158.63C214.308 159.323 214.518 159.847 214.905 160.202C215.293 160.553 215.837 160.729 216.539 160.729C216.99 160.729 217.357 160.665 217.64 160.537C217.927 160.405 218.139 160.227 218.275 160.004C218.417 159.776 218.487 159.519 218.487 159.231C218.487 158.812 218.346 158.495 218.063 158.281C217.785 158.062 217.414 157.905 216.949 157.81L215.842 157.584C215.541 157.525 215.217 157.443 214.871 157.338C214.529 157.229 214.206 157.076 213.9 156.88C213.595 156.679 213.344 156.415 213.148 156.087C212.957 155.754 212.861 155.337 212.861 154.836C212.861 154.198 213.025 153.669 213.354 153.25C213.682 152.826 214.121 152.509 214.673 152.3C215.224 152.09 215.833 151.985 216.498 151.985C217.195 151.985 217.808 152.092 218.337 152.307C218.866 152.521 219.299 152.831 219.636 153.236C219.978 153.637 220.205 154.125 220.319 154.699L218.433 155.089C218.396 154.743 218.305 154.446 218.159 154.2C218.018 153.95 217.815 153.758 217.551 153.626C217.286 153.494 216.942 153.428 216.519 153.428C216.159 153.428 215.842 153.478 215.568 153.578C215.295 153.678 215.081 153.826 214.926 154.022C214.771 154.214 214.693 154.449 214.693 154.727C214.693 155.077 214.841 155.353 215.138 155.554C215.434 155.75 215.871 155.909 216.45 156.032L217.578 156.271C218.048 156.367 218.494 156.522 218.918 156.736C219.346 156.946 219.695 157.244 219.964 157.632C220.237 158.015 220.374 158.518 220.374 159.143C220.374 159.79 220.215 160.341 219.896 160.797C219.581 161.248 219.139 161.59 218.569 161.822C218.004 162.055 217.343 162.171 216.587 162.171ZM226.485 162.171C225.487 162.171 224.624 161.966 223.895 161.556C223.17 161.141 222.612 160.553 222.22 159.792C221.828 159.031 221.632 158.126 221.632 157.078C221.632 156.03 221.828 155.125 222.22 154.364C222.612 153.603 223.17 153.018 223.895 152.607C224.624 152.193 225.487 151.985 226.485 151.985C227.483 151.985 228.345 152.193 229.069 152.607C229.799 153.018 230.359 153.603 230.751 154.364C231.143 155.125 231.339 156.03 231.339 157.078C231.339 158.126 231.143 159.031 230.751 159.792C230.359 160.553 229.799 161.141 229.069 161.556C228.345 161.966 227.483 162.171 226.485 162.171ZM226.485 160.688C227.105 160.688 227.636 160.544 228.078 160.257C228.525 159.965 228.867 159.55 229.104 159.013C229.34 158.47 229.459 157.826 229.459 157.078C229.459 156.326 229.34 155.681 229.104 155.144C228.867 154.606 228.525 154.193 228.078 153.906C227.636 153.615 227.105 153.469 226.485 153.469C225.87 153.469 225.339 153.615 224.893 153.906C224.446 154.193 224.104 154.606 223.867 155.144C223.63 155.681 223.512 156.326 223.512 157.078C223.512 157.826 223.63 158.47 223.867 159.013C224.104 159.55 224.446 159.965 224.893 160.257C225.339 160.544 225.87 160.688 226.485 160.688Z" fill="black" fill-opacity="0.3"/>
<path d="M287.369 234V232.899L292.913 225.667H287.827V224.156H295.142V225.277L289.618 232.489H295.217V234H287.369ZM295.825 234L299.749 224.156H301.868L305.778 234H303.878L300.802 225.592L297.726 234H295.825ZM298.163 231.102V229.673H303.427V231.102H298.163Z" fill="black" fill-opacity="0.3"/>
<path d="M381.032 212V202.156H382.803V206.395L387.137 202.156H389.379L385.688 205.766L389.57 212H387.499L384.43 207.003L382.803 208.596V212H381.032ZM393.528 212V203.64H390.035V202.156H398.806V203.64H395.299V212H393.528Z" fill="black" fill-opacity="0.3"/>
<path d="M450.032 258V248.156H451.803V252.395L456.137 248.156H458.379L454.688 251.766L458.57 258H456.499L453.43 253.003L451.803 254.596V258H450.032ZM459.835 258V248.156H462.351L467.095 256.954L466.609 256.995V248.156H468.305V258H465.885L461.024 249.154L461.53 249.106V258H459.835Z" fill="black" fill-opacity="0.3"/>
<path d="M525.814 220.171C525.149 220.171 524.577 220.068 524.099 219.863C523.62 219.654 523.23 219.341 522.93 218.927C522.629 218.507 522.412 217.986 522.28 217.361L524.085 216.931C524.172 217.523 524.338 217.97 524.584 218.271C524.835 218.571 525.236 218.722 525.787 218.722C526.298 218.722 526.674 218.585 526.915 218.312C527.161 218.038 527.284 217.61 527.284 217.026V211.64H523.504V210.156H529.055V217.026C529.055 217.61 528.97 218.104 528.802 218.51C528.633 218.911 528.398 219.234 528.098 219.48C527.801 219.722 527.457 219.897 527.065 220.007C526.678 220.116 526.261 220.171 525.814 220.171ZM530.6 220V218.558H531.939V211.599H530.6V210.156H535.05V211.599H533.71V218.558H535.05V220H530.6Z" fill="black" fill-opacity="0.3"/>
<path d="M673.63 220V216.158L670.212 210.156H672.085L674.689 215.01H674.348L676.952 210.156H678.818L675.4 216.151V220H673.63ZM683.843 220.171C682.845 220.171 681.981 219.966 681.252 219.556C680.527 219.141 679.969 218.553 679.577 217.792C679.185 217.031 678.989 216.126 678.989 215.078C678.989 214.03 679.185 213.125 679.577 212.364C679.969 211.603 680.527 211.018 681.252 210.607C681.981 210.193 682.845 209.985 683.843 209.985C684.841 209.985 685.702 210.193 686.427 210.607C687.156 211.018 687.716 211.603 688.108 212.364C688.5 213.125 688.696 214.03 688.696 215.078C688.696 216.126 688.5 217.031 688.108 217.792C687.716 218.553 687.156 219.141 686.427 219.556C685.702 219.966 684.841 220.171 683.843 220.171ZM683.843 218.688C684.463 218.688 684.993 218.544 685.436 218.257C685.882 217.965 686.224 217.55 686.461 217.013C686.698 216.47 686.816 215.826 686.816 215.078C686.816 214.326 686.698 213.681 686.461 213.144C686.224 212.606 685.882 212.193 685.436 211.906C684.993 211.615 684.463 211.469 683.843 211.469C683.228 211.469 682.697 211.615 682.25 211.906C681.803 212.193 681.462 212.606 681.225 213.144C680.988 213.681 680.869 214.326 680.869 215.078C680.869 215.826 680.988 216.47 681.225 217.013C681.462 217.55 681.803 217.965 682.25 218.257C682.697 218.544 683.228 218.688 683.843 218.688Z" fill="black" fill-opacity="0.3"/>
<path d="M797.032 252V242.156H801.154C802.216 242.156 803.032 242.359 803.602 242.765C804.176 243.166 804.463 243.751 804.463 244.521C804.463 245.009 804.36 245.408 804.155 245.718C803.95 246.023 803.69 246.256 803.376 246.415C803.062 246.57 802.74 246.67 802.412 246.716L802.433 246.688C803.148 246.802 803.722 247.076 804.155 247.509C804.588 247.942 804.805 248.543 804.805 249.313C804.805 249.983 804.647 250.514 804.333 250.906C804.019 251.298 803.602 251.578 803.082 251.747C802.567 251.916 802.004 252 801.394 252H797.032ZM798.803 250.605H801.161C801.649 250.605 802.027 250.53 802.296 250.38C802.565 250.225 802.752 250.027 802.856 249.785C802.961 249.544 803.014 249.288 803.014 249.02C803.014 248.669 802.934 248.372 802.774 248.131C802.619 247.889 802.382 247.705 802.063 247.577C801.749 247.45 801.353 247.386 800.874 247.386H798.803V250.605ZM798.803 246.046H801.038C801.517 246.046 801.909 245.948 802.214 245.752C802.519 245.556 802.672 245.235 802.672 244.788C802.672 244.424 802.551 244.127 802.31 243.899C802.068 243.667 801.658 243.551 801.079 243.551H798.803V246.046ZM810.964 252.171C809.966 252.171 809.102 251.966 808.373 251.556C807.648 251.141 807.09 250.553 806.698 249.792C806.306 249.031 806.11 248.126 806.11 247.078C806.11 246.03 806.306 245.125 806.698 244.364C807.09 243.603 807.648 243.018 808.373 242.607C809.102 242.193 809.966 241.985 810.964 241.985C811.962 241.985 812.823 242.193 813.548 242.607C814.277 243.018 814.838 243.603 815.229 244.364C815.621 245.125 815.817 246.03 815.817 247.078C815.817 248.126 815.621 249.031 815.229 249.792C814.838 250.553 814.277 251.141 813.548 251.556C812.823 251.966 811.962 252.171 810.964 252.171ZM810.964 250.688C811.584 250.688 812.115 250.544 812.557 250.257C813.003 249.965 813.345 249.55 813.582 249.013C813.819 248.47 813.938 247.826 813.938 247.078C813.938 246.326 813.819 245.681 813.582 245.144C813.345 244.606 813.003 244.193 812.557 243.906C812.115 243.615 811.584 243.469 810.964 243.469C810.349 243.469 809.818 243.615 809.371 243.906C808.924 244.193 808.583 244.606 808.346 245.144C808.109 245.681 807.99 246.326 807.99 247.078C807.99 247.826 808.109 248.47 808.346 249.013C808.583 249.55 808.924 249.965 809.371 250.257C809.818 250.544 810.349 250.688 810.964 250.688Z" fill="black" fill-opacity="0.3"/>
<path d="M737.089 440L741.013 430.156H743.132L747.042 440H745.142L742.065 431.592L738.989 440H737.089ZM739.427 437.102V435.673H744.69V437.102H739.427ZM748.163 440V430.156H751.615C752.786 430.156 753.743 430.35 754.486 430.737C755.234 431.125 755.785 431.683 756.141 432.412C756.501 433.141 756.681 434.014 756.681 435.03C756.681 436.138 756.48 437.061 756.079 437.799C755.683 438.533 755.102 439.084 754.336 439.453C753.575 439.818 752.647 440 751.554 440H748.163ZM749.934 438.517H751.369C753.657 438.517 754.801 437.37 754.801 435.078C754.801 434.363 754.682 433.75 754.445 433.239C754.213 432.724 753.848 432.33 753.352 432.057C752.859 431.779 752.219 431.64 751.431 431.64H749.934V438.517Z" fill="black" fill-opacity="0.3"/>
<path d="M651.476 363.171C650.391 363.171 649.482 362.957 648.748 362.528C648.014 362.1 647.461 361.505 647.087 360.744C646.718 359.983 646.533 359.106 646.533 358.112C646.533 357.101 646.718 356.21 647.087 355.439C647.461 354.669 648.001 354.068 648.707 353.635C649.418 353.202 650.272 352.985 651.271 352.985C651.95 352.985 652.574 353.095 653.144 353.313C653.713 353.532 654.201 353.865 654.606 354.312C655.017 354.754 655.311 355.314 655.488 355.993L653.649 356.431C653.504 355.752 653.221 355.255 652.802 354.94C652.382 354.626 651.874 354.469 651.277 354.469C650.671 354.469 650.154 354.621 649.726 354.927C649.297 355.228 648.969 355.654 648.741 356.205C648.518 356.757 648.406 357.408 648.406 358.16C648.406 358.816 648.504 359.413 648.7 359.951C648.896 360.484 649.215 360.908 649.657 361.223C650.099 361.533 650.689 361.688 651.428 361.688C651.842 361.688 652.264 361.624 652.692 361.496C653.121 361.368 653.49 361.127 653.8 360.771V358.748L654.415 359.213H650.785V357.757H655.481V361.469C655.094 361.952 654.661 362.316 654.183 362.562C653.704 362.809 653.226 362.97 652.747 363.048C652.273 363.13 651.849 363.171 651.476 363.171ZM661.784 363.171C660.786 363.171 659.923 362.966 659.193 362.556C658.469 362.141 657.91 361.553 657.519 360.792C657.127 360.031 656.931 359.126 656.931 358.078C656.931 357.03 657.127 356.125 657.519 355.364C657.91 354.603 658.469 354.018 659.193 353.607C659.923 353.193 660.786 352.985 661.784 352.985C662.782 352.985 663.644 353.193 664.368 353.607C665.097 354.018 665.658 354.603 666.05 355.364C666.442 356.125 666.638 357.03 666.638 358.078C666.638 359.126 666.442 360.031 666.05 360.792C665.658 361.553 665.097 362.141 664.368 362.556C663.644 362.966 662.782 363.171 661.784 363.171ZM661.784 361.688C662.404 361.688 662.935 361.544 663.377 361.257C663.824 360.965 664.165 360.55 664.402 360.013C664.639 359.47 664.758 358.826 664.758 358.078C664.758 357.326 664.639 356.681 664.402 356.144C664.165 355.606 663.824 355.193 663.377 354.906C662.935 354.615 662.404 354.469 661.784 354.469C661.169 354.469 660.638 354.615 660.191 354.906C659.745 355.193 659.403 355.606 659.166 356.144C658.929 356.681 658.811 357.326 658.811 358.078C658.811 358.826 658.929 359.47 659.166 360.013C659.403 360.55 659.745 360.965 660.191 361.257C660.638 361.544 661.169 361.688 661.784 361.688Z" fill="black" fill-opacity="0.3"/>
<path d="M548.032 358V348.156H552.154C553.216 348.156 554.032 348.359 554.602 348.765C555.176 349.166 555.463 349.751 555.463 350.521C555.463 351.009 555.36 351.408 555.155 351.718C554.95 352.023 554.69 352.256 554.376 352.415C554.062 352.57 553.74 352.67 553.412 352.716L553.433 352.688C554.148 352.802 554.722 353.076 555.155 353.509C555.588 353.942 555.805 354.543 555.805 355.313C555.805 355.983 555.647 356.514 555.333 356.906C555.019 357.298 554.602 357.578 554.082 357.747C553.567 357.916 553.004 358 552.394 358H548.032ZM549.803 356.605H552.161C552.649 356.605 553.027 356.53 553.296 356.38C553.565 356.225 553.752 356.027 553.856 355.785C553.961 355.544 554.014 355.288 554.014 355.02C554.014 354.669 553.934 354.372 553.774 354.131C553.619 353.889 553.382 353.705 553.063 353.577C552.749 353.45 552.353 353.386 551.874 353.386H549.803V356.605ZM549.803 352.046H552.038C552.517 352.046 552.909 351.948 553.214 351.752C553.519 351.556 553.672 351.235 553.672 350.788C553.672 350.424 553.551 350.127 553.31 349.899C553.068 349.667 552.658 349.551 552.079 349.551H549.803V352.046ZM556.427 358L560.351 348.156H562.47L566.38 358H564.479L561.403 349.592L558.327 358H556.427ZM558.765 355.102V353.673H564.028V355.102H558.765Z" fill="black" fill-opacity="0.3"/>
<path d="M399.032 366V356.156H400.803V360.395L405.137 356.156H407.379L403.688 359.766L407.57 366H405.499L402.43 361.003L400.803 362.596V366H399.032ZM408.835 366V356.156H412.287C413.458 356.156 414.415 356.35 415.158 356.737C415.906 357.125 416.457 357.683 416.812 358.412C417.173 359.141 417.353 360.014 417.353 361.03C417.353 362.138 417.152 363.061 416.751 363.799C416.354 364.533 415.773 365.084 415.008 365.453C414.247 365.818 413.319 366 412.226 366H408.835ZM410.605 364.517H412.041C414.329 364.517 415.473 363.37 415.473 361.078C415.473 360.363 415.354 359.75 415.117 359.239C414.885 358.724 414.52 358.33 414.023 358.057C413.531 357.779 412.891 357.64 412.103 357.64H410.605V364.517Z" fill="black" fill-opacity="0.3"/>
<path d="M181.032 488V478.156H182.803V482.395L187.137 478.156H189.379L185.688 481.766L189.57 488H187.499L184.43 483.003L182.803 484.596V488H181.032ZM192.277 488L190.117 478.156H191.956L193.604 486.899H193.453L195.593 478.156H197.712L199.845 486.899H199.701L201.342 478.156H203.188L201.021 488H198.532L196.536 479.551H196.762L194.766 488H192.277Z" fill="black" fill-opacity="0.3"/>
<path d="M90.3799 525.171C89.3818 525.171 88.5182 524.966 87.7891 524.556C87.0645 524.141 86.5062 523.553 86.1143 522.792C85.7223 522.031 85.5264 521.126 85.5264 520.078C85.5264 519.03 85.7223 518.125 86.1143 517.364C86.5062 516.603 87.0645 516.018 87.7891 515.607C88.5182 515.193 89.3818 514.985 90.3799 514.985C91.3779 514.985 92.2393 515.193 92.9639 515.607C93.693 516.018 94.2536 516.603 94.6455 517.364C95.0374 518.125 95.2334 519.03 95.2334 520.078C95.2334 521.126 95.0374 522.031 94.6455 522.792C94.2536 523.553 93.693 524.141 92.9639 524.556C92.2393 524.966 91.3779 525.171 90.3799 525.171ZM90.3799 523.688C90.9997 523.688 91.5306 523.544 91.9727 523.257C92.4193 522.965 92.7611 522.55 92.998 522.013C93.235 521.47 93.3535 520.826 93.3535 520.078C93.3535 519.326 93.235 518.681 92.998 518.144C92.7611 517.606 92.4193 517.193 91.9727 516.906C91.5306 516.615 90.9997 516.469 90.3799 516.469C89.7646 516.469 89.2337 516.615 88.7871 516.906C88.3405 517.193 87.9987 517.606 87.7617 518.144C87.5247 518.681 87.4062 519.326 87.4062 520.078C87.4062 520.826 87.5247 521.47 87.7617 522.013C87.9987 522.55 88.3405 522.965 88.7871 523.257C89.2337 523.544 89.7646 523.688 90.3799 523.688ZM98.8154 525V521.158L95.3975 515.156H97.2705L99.875 520.01H99.5332L102.138 515.156H104.004L100.586 521.151V525H98.8154Z" fill="black" fill-opacity="0.3"/>
<path d="M72.3799 610.171C71.3818 610.171 70.5182 609.966 69.7891 609.556C69.0645 609.141 68.5062 608.553 68.1143 607.792C67.7223 607.031 67.5264 606.126 67.5264 605.078C67.5264 604.03 67.7223 603.125 68.1143 602.364C68.5062 601.603 69.0645 601.018 69.7891 600.607C70.5182 600.193 71.3818 599.985 72.3799 599.985C73.3779 599.985 74.2393 600.193 74.9639 600.607C75.693 601.018 76.2536 601.603 76.6455 602.364C77.0374 603.125 77.2334 604.03 77.2334 605.078C77.2334 606.126 77.0374 607.031 76.6455 607.792C76.2536 608.553 75.693 609.141 74.9639 609.556C74.2393 609.966 73.3779 610.171 72.3799 610.171ZM72.3799 608.688C72.9997 608.688 73.5306 608.544 73.9727 608.257C74.4193 607.965 74.7611 607.55 74.998 607.013C75.235 606.47 75.3535 605.826 75.3535 605.078C75.3535 604.326 75.235 603.681 74.998 603.144C74.7611 602.606 74.4193 602.193 73.9727 601.906C73.5306 601.615 72.9997 601.469 72.3799 601.469C71.7646 601.469 71.2337 601.615 70.7871 601.906C70.3405 602.193 69.9987 602.606 69.7617 603.144C69.5247 603.681 69.4062 604.326 69.4062 605.078C69.4062 605.826 69.5247 606.47 69.7617 607.013C69.9987 607.55 70.3405 607.965 70.7871 608.257C71.2337 608.544 71.7646 608.688 72.3799 608.688ZM83.6045 610.171C82.5199 610.171 81.6107 609.957 80.877 609.528C80.1432 609.1 79.5895 608.505 79.2158 607.744C78.8467 606.983 78.6621 606.106 78.6621 605.112C78.6621 604.101 78.8467 603.21 79.2158 602.439C79.5895 601.669 80.1296 601.068 80.8359 600.635C81.5469 600.202 82.4014 599.985 83.3994 599.985C84.0785 599.985 84.7028 600.095 85.2725 600.313C85.8421 600.532 86.3298 600.865 86.7354 601.312C87.1455 601.754 87.4395 602.314 87.6172 602.993L85.7783 603.431C85.6325 602.752 85.3499 602.255 84.9307 601.94C84.5114 601.626 84.0033 601.469 83.4062 601.469C82.8001 601.469 82.2829 601.621 81.8545 601.927C81.4261 602.228 81.098 602.654 80.8701 603.205C80.6468 603.757 80.5352 604.408 80.5352 605.16C80.5352 605.816 80.6331 606.413 80.8291 606.951C81.0251 607.484 81.3441 607.908 81.7861 608.223C82.2282 608.533 82.8184 608.688 83.5566 608.688C83.9714 608.688 84.3929 608.624 84.8213 608.496C85.2497 608.368 85.6188 608.127 85.9287 607.771V605.748L86.5439 606.213H82.9141V604.757H87.6104V608.469C87.223 608.952 86.79 609.316 86.3115 609.562C85.833 609.809 85.3545 609.97 84.876 610.048C84.402 610.13 83.9782 610.171 83.6045 610.171Z" fill="black" fill-opacity="0.3"/>
<path d="M116.032 646V636.156H117.803V644.517H122.615V646H116.032ZM123.196 646L127.12 636.156H129.239L133.149 646H131.249L128.173 637.592L125.097 646H123.196ZM125.534 643.102V641.673H130.798V643.102H125.534Z" fill="black" fill-opacity="0.3"/>
<path d="M160.38 572.171C159.382 572.171 158.518 571.966 157.789 571.556C157.064 571.141 156.506 570.553 156.114 569.792C155.722 569.031 155.526 568.126 155.526 567.078C155.526 566.03 155.722 565.125 156.114 564.364C156.506 563.603 157.064 563.018 157.789 562.607C158.518 562.193 159.382 561.985 160.38 561.985C161.378 561.985 162.239 562.193 162.964 562.607C163.693 563.018 164.254 563.603 164.646 564.364C165.037 565.125 165.233 566.03 165.233 567.078C165.233 568.126 165.037 569.031 164.646 569.792C164.254 570.553 163.693 571.141 162.964 571.556C162.239 571.966 161.378 572.171 160.38 572.171ZM160.38 570.688C161 570.688 161.531 570.544 161.973 570.257C162.419 569.965 162.761 569.55 162.998 569.013C163.235 568.47 163.354 567.826 163.354 567.078C163.354 566.326 163.235 565.681 162.998 565.144C162.761 564.606 162.419 564.193 161.973 563.906C161.531 563.615 161 563.469 160.38 563.469C159.765 563.469 159.234 563.615 158.787 563.906C158.34 564.193 157.999 564.606 157.762 565.144C157.525 565.681 157.406 566.326 157.406 567.078C157.406 567.826 157.525 568.47 157.762 569.013C157.999 569.55 158.34 569.965 158.787 570.257C159.234 570.544 159.765 570.688 160.38 570.688ZM170.429 572.171C169.686 572.171 169.016 572.055 168.419 571.822C167.822 571.585 167.33 571.232 166.942 570.763C166.56 570.293 166.311 569.712 166.197 569.02L168.118 568.63C168.15 569.323 168.36 569.847 168.747 570.202C169.134 570.553 169.679 570.729 170.381 570.729C170.832 570.729 171.199 570.665 171.481 570.537C171.769 570.405 171.98 570.227 172.117 570.004C172.258 569.776 172.329 569.519 172.329 569.231C172.329 568.812 172.188 568.495 171.905 568.281C171.627 568.062 171.256 567.905 170.791 567.81L169.684 567.584C169.383 567.525 169.059 567.443 168.713 567.338C168.371 567.229 168.048 567.076 167.742 566.88C167.437 566.679 167.186 566.415 166.99 566.087C166.799 565.754 166.703 565.337 166.703 564.836C166.703 564.198 166.867 563.669 167.195 563.25C167.523 562.826 167.963 562.509 168.515 562.3C169.066 562.09 169.674 561.985 170.34 561.985C171.037 561.985 171.65 562.092 172.179 562.307C172.707 562.521 173.14 562.831 173.478 563.236C173.819 563.637 174.047 564.125 174.161 564.699L172.274 565.089C172.238 564.743 172.147 564.446 172.001 564.2C171.86 563.95 171.657 563.758 171.393 563.626C171.128 563.494 170.784 563.428 170.36 563.428C170 563.428 169.684 563.478 169.41 563.578C169.137 563.678 168.923 563.826 168.768 564.022C168.613 564.214 168.535 564.449 168.535 564.727C168.535 565.077 168.683 565.353 168.979 565.554C169.276 565.75 169.713 565.909 170.292 566.032L171.42 566.271C171.889 566.367 172.336 566.522 172.76 566.736C173.188 566.946 173.537 567.244 173.806 567.632C174.079 568.015 174.216 568.518 174.216 569.143C174.216 569.79 174.056 570.341 173.737 570.797C173.423 571.248 172.981 571.59 172.411 571.822C171.846 572.055 171.185 572.171 170.429 572.171Z" fill="black" fill-opacity="0.3"/>
<path d="M214.032 559V549.156H220.8V550.64H215.803V553.08H220.096V554.522H215.803V557.517H220.896V559H214.032ZM222.427 559V549.156H224.197V553.395L228.531 549.156H230.773L227.082 552.766L230.965 559H228.894L225.824 554.003L224.197 555.596V559H222.427Z" fill="black" fill-opacity="0.3"/>
<path d="M187.38 626.171C186.382 626.171 185.518 625.966 184.789 625.556C184.064 625.141 183.506 624.553 183.114 623.792C182.722 623.031 182.526 622.126 182.526 621.078C182.526 620.03 182.722 619.125 183.114 618.364C183.506 617.603 184.064 617.018 184.789 616.607C185.518 616.193 186.382 615.985 187.38 615.985C188.378 615.985 189.239 616.193 189.964 616.607C190.693 617.018 191.254 617.603 191.646 618.364C192.037 619.125 192.233 620.03 192.233 621.078C192.233 622.126 192.037 623.031 191.646 623.792C191.254 624.553 190.693 625.141 189.964 625.556C189.239 625.966 188.378 626.171 187.38 626.171ZM187.38 624.688C188 624.688 188.531 624.544 188.973 624.257C189.419 623.965 189.761 623.55 189.998 623.013C190.235 622.47 190.354 621.826 190.354 621.078C190.354 620.326 190.235 619.681 189.998 619.144C189.761 618.606 189.419 618.193 188.973 617.906C188.531 617.615 188 617.469 187.38 617.469C186.765 617.469 186.234 617.615 185.787 617.906C185.34 618.193 184.999 618.606 184.762 619.144C184.525 619.681 184.406 620.326 184.406 621.078C184.406 621.826 184.525 622.47 184.762 623.013C184.999 623.55 185.34 623.965 185.787 624.257C186.234 624.544 186.765 624.688 187.38 624.688ZM193.792 626V616.156H196.308L201.052 624.954L200.566 624.995V616.156H202.262V626H199.842L194.981 617.154L195.487 617.106V626H193.792Z" fill="black" fill-opacity="0.3"/>
<path d="M254.032 648V638.156H260.8V639.64H255.803V642.08H260.096V643.522H255.803V646.517H260.896V648H254.032ZM262.427 648V638.156H265.879C267.05 638.156 268.007 638.35 268.75 638.737C269.497 639.125 270.049 639.683 270.404 640.412C270.764 641.141 270.944 642.014 270.944 643.03C270.944 644.138 270.744 645.061 270.343 645.799C269.946 646.533 269.365 647.084 268.6 647.453C267.839 647.818 266.911 648 265.817 648H262.427ZM264.197 646.517H265.633C267.921 646.517 269.064 645.37 269.064 643.078C269.064 642.363 268.946 641.75 268.709 641.239C268.477 640.724 268.112 640.33 267.615 640.057C267.123 639.779 266.483 639.64 265.694 639.64H264.197V646.517Z" fill="black" fill-opacity="0.3"/>
<path d="M313.032 556V546.156H314.803V550.395L319.137 546.156H321.379L317.688 549.766L321.57 556H319.499L316.43 551.003L314.803 552.596V556H313.032ZM326.649 556.171C325.651 556.171 324.788 555.966 324.059 555.556C323.334 555.141 322.776 554.553 322.384 553.792C321.992 553.031 321.796 552.126 321.796 551.078C321.796 550.03 321.992 549.125 322.384 548.364C322.776 547.603 323.334 547.018 324.059 546.607C324.788 546.193 325.651 545.985 326.649 545.985C327.647 545.985 328.509 546.193 329.233 546.607C329.963 547.018 330.523 547.603 330.915 548.364C331.307 549.125 331.503 550.03 331.503 551.078C331.503 552.126 331.307 553.031 330.915 553.792C330.523 554.553 329.963 555.141 329.233 555.556C328.509 555.966 327.647 556.171 326.649 556.171ZM326.649 554.688C327.269 554.688 327.8 554.544 328.242 554.257C328.689 553.965 329.031 553.55 329.268 553.013C329.505 552.47 329.623 551.826 329.623 551.078C329.623 550.326 329.505 549.681 329.268 549.144C329.031 548.606 328.689 548.193 328.242 547.906C327.8 547.615 327.269 547.469 326.649 547.469C326.034 547.469 325.503 547.615 325.057 547.906C324.61 548.193 324.268 548.606 324.031 549.144C323.794 549.681 323.676 550.326 323.676 551.078C323.676 551.826 323.794 552.47 324.031 553.013C324.268 553.55 324.61 553.965 325.057 554.257C325.503 554.544 326.034 554.688 326.649 554.688Z" fill="black" fill-opacity="0.3"/>
<path d="M414.032 501V491.156H416.548L421.292 499.954L420.807 499.995V491.156H422.502V501H420.082L415.222 492.154L415.728 492.106V501H414.032ZM423.63 501L427.554 491.156H429.673L433.583 501H431.683L428.606 492.592L425.53 501H423.63ZM425.968 498.102V496.673H431.231V498.102H425.968Z" fill="black" fill-opacity="0.3"/>
<path d="M346.032 475V465.156H352.684V466.64H347.803V469.114H352.123V470.604H347.803V475H346.032ZM358.228 475.171C357.266 475.171 356.427 474.957 355.712 474.528C355.001 474.1 354.45 473.501 354.058 472.73C353.666 471.96 353.47 471.065 353.47 470.044C353.47 469.046 353.659 468.169 354.037 467.412C354.42 466.651 354.967 466.056 355.678 465.628C356.389 465.2 357.234 464.985 358.214 464.985C359.28 464.985 360.194 465.254 360.955 465.792C361.721 466.33 362.224 467.123 362.466 468.171L360.647 468.595C360.488 467.879 360.192 467.346 359.759 466.995C359.33 466.644 358.811 466.469 358.2 466.469C357.599 466.469 357.084 466.621 356.655 466.927C356.231 467.228 355.906 467.649 355.678 468.191C355.454 468.729 355.343 469.356 355.343 470.071C355.343 470.796 355.457 471.432 355.685 471.979C355.917 472.521 356.243 472.942 356.662 473.243C357.086 473.539 357.587 473.688 358.166 473.688C358.795 473.688 359.33 473.505 359.772 473.141C360.215 472.771 360.506 472.254 360.647 471.589L362.514 472.006C362.245 473.027 361.73 473.811 360.969 474.357C360.208 474.9 359.294 475.171 358.228 475.171ZM366.403 475V466.64H362.91V465.156H371.681V466.64H368.174V475H366.403Z" fill="black" fill-opacity="0.3"/>
<path d="M469.032 585V575.156H473.154C474.216 575.156 475.032 575.359 475.602 575.765C476.176 576.166 476.463 576.751 476.463 577.521C476.463 578.009 476.36 578.408 476.155 578.718C475.95 579.023 475.69 579.256 475.376 579.415C475.062 579.57 474.74 579.67 474.412 579.716L474.433 579.688C475.148 579.802 475.722 580.076 476.155 580.509C476.588 580.942 476.805 581.543 476.805 582.313C476.805 582.983 476.647 583.514 476.333 583.906C476.019 584.298 475.602 584.578 475.082 584.747C474.567 584.916 474.004 585 473.394 585H469.032ZM470.803 583.605H473.161C473.649 583.605 474.027 583.53 474.296 583.38C474.565 583.225 474.752 583.027 474.856 582.785C474.961 582.544 475.014 582.288 475.014 582.02C475.014 581.669 474.934 581.372 474.774 581.131C474.619 580.889 474.382 580.705 474.063 580.577C473.749 580.45 473.353 580.386 472.874 580.386H470.803V583.605ZM470.803 579.046H473.038C473.517 579.046 473.909 578.948 474.214 578.752C474.519 578.556 474.672 578.235 474.672 577.788C474.672 577.424 474.551 577.127 474.31 576.899C474.068 576.667 473.658 576.551 473.079 576.551H470.803V579.046ZM478.479 585V575.156H485.247V576.64H480.25V579.08H484.543V580.522H480.25V583.517H485.343V585H478.479Z" fill="black" fill-opacity="0.3"/>
<path d="M459.284 696.171C458.323 696.171 457.484 695.957 456.769 695.528C456.058 695.1 455.506 694.501 455.114 693.73C454.722 692.96 454.526 692.065 454.526 691.044C454.526 690.046 454.715 689.169 455.094 688.412C455.477 687.651 456.023 687.056 456.734 686.628C457.445 686.2 458.291 685.985 459.271 685.985C460.337 685.985 461.251 686.254 462.012 686.792C462.777 687.33 463.281 688.123 463.522 689.171L461.704 689.595C461.545 688.879 461.248 688.346 460.815 687.995C460.387 687.644 459.868 687.469 459.257 687.469C458.655 687.469 458.14 687.621 457.712 687.927C457.288 688.228 456.962 688.649 456.734 689.191C456.511 689.729 456.399 690.356 456.399 691.071C456.399 691.796 456.513 692.432 456.741 692.979C456.974 693.521 457.299 693.942 457.719 694.243C458.143 694.539 458.644 694.688 459.223 694.688C459.852 694.688 460.387 694.505 460.829 694.141C461.271 693.771 461.563 693.254 461.704 692.589L463.57 693.006C463.301 694.027 462.786 694.811 462.025 695.357C461.264 695.9 460.351 696.171 459.284 696.171ZM464.999 696V686.156H469.292C471.612 686.156 472.771 687.072 472.771 688.904C472.771 690.745 471.559 691.666 469.135 691.666H466.77V696H464.999ZM470.871 696L468.123 691.181H470.099L472.867 696H470.871ZM466.77 690.265H469.217C469.786 690.265 470.224 690.151 470.529 689.923C470.839 689.69 470.994 689.355 470.994 688.918C470.994 688.48 470.837 688.143 470.522 687.906C470.213 687.669 469.771 687.551 469.196 687.551H466.77V690.265Z" fill="black" fill-opacity="0.3"/>
<path d="M409.032 668V658.156H415.8V659.64H410.803V662.08H415.096V663.522H410.803V666.517H415.896V668H409.032ZM417.427 668V658.156H421.549C422.611 658.156 423.426 658.359 423.996 658.765C424.57 659.166 424.857 659.751 424.857 660.521C424.857 661.009 424.755 661.408 424.55 661.718C424.345 662.023 424.085 662.256 423.771 662.415C423.456 662.57 423.135 662.67 422.807 662.716L422.827 662.688C423.543 662.802 424.117 663.076 424.55 663.509C424.983 663.942 425.199 664.543 425.199 665.313C425.199 665.983 425.042 666.514 424.728 666.906C424.413 667.298 423.996 667.578 423.477 667.747C422.962 667.916 422.399 668 421.788 668H417.427ZM419.197 666.605H421.556C422.043 666.605 422.422 666.53 422.69 666.38C422.959 666.225 423.146 666.027 423.251 665.785C423.356 665.544 423.408 665.288 423.408 665.02C423.408 664.669 423.328 664.372 423.169 664.131C423.014 663.889 422.777 663.705 422.458 663.577C422.144 663.45 421.747 663.386 421.269 663.386H419.197V666.605ZM419.197 662.046H421.433C421.911 662.046 422.303 661.948 422.608 661.752C422.914 661.556 423.066 661.235 423.066 660.788C423.066 660.424 422.946 660.127 422.704 659.899C422.463 659.667 422.052 659.551 421.474 659.551H419.197V662.046Z" fill="black" fill-opacity="0.3"/>
<path d="M369.032 643V633.156H375.8V634.64H370.803V637.08H375.096V638.522H370.803V641.517H375.896V643H369.032ZM377.427 643V633.156H379.942L384.687 641.954L384.201 641.995V633.156H385.896V643H383.477L378.616 634.154L379.122 634.106V643H377.427Z" fill="black" fill-opacity="0.3"/>
<path d="M264.032 722V712.156H267.484C268.656 712.156 269.613 712.35 270.355 712.737C271.103 713.125 271.654 713.683 272.01 714.412C272.37 715.141 272.55 716.014 272.55 717.03C272.55 718.138 272.349 719.061 271.948 719.799C271.552 720.533 270.971 721.084 270.205 721.453C269.444 721.818 268.517 722 267.423 722H264.032ZM265.803 720.517H267.238C269.526 720.517 270.67 719.37 270.67 717.078C270.67 716.363 270.551 715.75 270.314 715.239C270.082 714.724 269.717 714.33 269.221 714.057C268.729 713.779 268.088 713.64 267.3 713.64H265.803V720.517ZM274.136 722V712.156H280.903V713.64H275.906V716.08H280.199V717.522H275.906V720.517H280.999V722H274.136Z" fill="black" fill-opacity="0.3"/>
<path d="M273.032 778V768.156H277.154C278.216 768.156 279.032 768.359 279.602 768.765C280.176 769.166 280.463 769.751 280.463 770.521C280.463 771.009 280.36 771.408 280.155 771.718C279.95 772.023 279.69 772.256 279.376 772.415C279.062 772.57 278.74 772.67 278.412 772.716L278.433 772.688C279.148 772.802 279.722 773.076 280.155 773.509C280.588 773.942 280.805 774.543 280.805 775.313C280.805 775.983 280.647 776.514 280.333 776.906C280.019 777.298 279.602 777.578 279.082 777.747C278.567 777.916 278.004 778 277.394 778H273.032ZM274.803 776.605H277.161C277.649 776.605 278.027 776.53 278.296 776.38C278.565 776.225 278.752 776.027 278.856 775.785C278.961 775.544 279.014 775.288 279.014 775.02C279.014 774.669 278.934 774.372 278.774 774.131C278.619 773.889 278.382 773.705 278.063 773.577C277.749 773.45 277.353 773.386 276.874 773.386H274.803V776.605ZM274.803 772.046H277.038C277.517 772.046 277.909 771.948 278.214 771.752C278.519 771.556 278.672 771.235 278.672 770.788C278.672 770.424 278.551 770.127 278.31 769.899C278.068 769.667 277.658 769.551 277.079 769.551H274.803V772.046ZM284.626 778V774.158L281.208 768.156H283.081L285.686 773.01H285.344L287.948 768.156H289.814L286.396 774.151V778H284.626Z" fill="black" fill-opacity="0.3"/>
<path d="M332.089 668L336.013 658.156H338.132L342.042 668H340.142L337.065 659.592L333.989 668H332.089ZM334.427 665.102V663.673H339.69V665.102H334.427ZM343.163 668V658.156H345.679L350.423 666.954L349.938 666.995V658.156H351.633V668H349.213L344.353 659.154L344.858 659.106V668H343.163Z" fill="black" fill-opacity="0.3"/>
<path d="M338.561 718V716.558H339.9V709.599H338.561V708.156H343.011V709.599H341.671V716.558H343.011V718H338.561ZM344.351 718L344.897 708.156H347.782L350.079 716.783H349.826L352.13 708.156H355.021L355.568 718H353.846L353.395 709.441H353.415L351.016 718H348.903L346.504 709.441H346.524L346.066 718H344.351Z" fill="black" fill-opacity="0.3"/>
<path d="M326.032 761V751.156H330.325C332.645 751.156 333.805 752.072 333.805 753.904C333.805 755.745 332.592 756.666 330.168 756.666H327.803V761H326.032ZM331.904 761L329.156 756.181H331.132L333.9 761H331.904ZM327.803 755.265H330.25C330.82 755.265 331.257 755.151 331.562 754.923C331.872 754.69 332.027 754.355 332.027 753.918C332.027 753.48 331.87 753.143 331.556 752.906C331.246 752.669 330.804 752.551 330.229 752.551H327.803V755.265ZM334.939 761V759.558H336.279V752.599H334.939V751.156H339.39V752.599H338.05V759.558H339.39V761H334.939Z" fill="black" fill-opacity="0.3"/>
<path d="M377.089 720L381.013 710.156H383.132L387.042 720H385.142L382.065 711.592L378.989 720H377.089ZM379.427 717.102V715.673H384.69V717.102H379.427ZM388.163 720V710.156H392.285C393.347 710.156 394.163 710.359 394.732 710.765C395.307 711.166 395.594 711.751 395.594 712.521C395.594 713.009 395.491 713.408 395.286 713.718C395.081 714.023 394.821 714.256 394.507 714.415C394.192 714.57 393.871 714.67 393.543 714.716L393.563 714.688C394.279 714.802 394.853 715.076 395.286 715.509C395.719 715.942 395.936 716.543 395.936 717.313C395.936 717.983 395.778 718.514 395.464 718.906C395.149 719.298 394.732 719.578 394.213 719.747C393.698 719.916 393.135 720 392.524 720H388.163ZM389.934 718.605H392.292C392.78 718.605 393.158 718.53 393.427 718.38C393.696 718.225 393.882 718.027 393.987 717.785C394.092 717.544 394.145 717.288 394.145 717.02C394.145 716.669 394.065 716.372 393.905 716.131C393.75 715.889 393.513 715.705 393.194 715.577C392.88 715.45 392.483 715.386 392.005 715.386H389.934V718.605ZM389.934 714.046H392.169C392.647 714.046 393.039 713.948 393.345 713.752C393.65 713.556 393.803 713.235 393.803 712.788C393.803 712.424 393.682 712.127 393.44 711.899C393.199 711.667 392.789 711.551 392.21 711.551H389.934V714.046Z" fill="black" fill-opacity="0.3"/>
<path d="M398.089 765L402.013 755.156H404.132L408.042 765H406.142L403.065 756.592L399.989 765H398.089ZM400.427 762.102V760.673H405.69V762.102H400.427ZM409.163 765V755.156H410.934V759.395L415.268 755.156H417.51L413.818 758.766L417.701 765H415.63L412.561 760.003L410.934 761.596V765H409.163Z" fill="black" fill-opacity="0.3"/>
<path d="M611.808 541V532.64H608.314V531.156H617.085V532.64H613.578V541H611.808ZM616.032 541L619.956 531.156H622.075L625.985 541H624.085L621.009 532.592L617.933 541H616.032ZM618.37 538.102V536.673H623.634V538.102H618.37Z" fill="black" fill-opacity="0.3"/>
<path d="M527.032 456V446.156H531.195C532.357 446.156 533.228 446.398 533.807 446.881C534.39 447.364 534.682 448.075 534.682 449.014C534.682 449.939 534.379 450.647 533.772 451.14C533.171 451.627 532.257 451.871 531.031 451.871H528.803V456H527.032ZM528.803 450.477H531.113C531.697 450.477 532.141 450.349 532.446 450.094C532.752 449.834 532.904 449.479 532.904 449.027C532.904 448.613 532.763 448.264 532.48 447.981C532.198 447.694 531.735 447.551 531.093 447.551H528.803V450.477ZM536.151 456V446.156H537.922V454.517H542.734V456H536.151Z" fill="black" fill-opacity="0.3"/>
</svg>
